<?xml version="1.0" standalone="no"?>
<!DOCTYPE svg PUBLIC "-//W3C//DTD SVG 20010904//EN"
 "http://www.w3.org/TR/2001/REC-SVG-20010904/DTD/svg10.dtd">
<svg version="1.0" xmlns="http://www.w3.org/2000/svg"
 width="700.000000pt" height="700.000000pt" viewBox="0 0 700.000000 700.000000"
 preserveAspectRatio="xMidYMid meet">
<metadata>
Created by potrace 1.14, written by Peter Selinger 2001-2017
</metadata>
<g transform="translate(0.000000,700.000000) scale(0.100000,-0.100000)"
fill="#000000" stroke="none">
<path d="M3429 6558 c-242 -27 -458 -194 -542 -418 -38 -103 -43 -164 -43
-533 l1 -357 -55 0 -55 0 -1 238 c-1 317 -9 369 -84 509 -80 149 -209 259
-369 313 -80 26 -113 32 -207 32 -207 -1 -396 -97 -524 -267 -55 -74 -91 -152
-117 -252 -3 -15 -8 -468 -9 -1007 -2 -538 -4 -980 -6 -981 -2 -2 -26 18 -54
44 l-52 49 0 368 c0 390 -4 424 -51 541 -101 254 -367 427 -631 410 -47 -3
-98 -8 -113 -12 -238 -50 -434 -242 -497 -485 -18 -70 -20 -111 -19 -625 1
-600 5 -654 58 -825 17 -52 52 -140 79 -195 94 -190 192 -305 476 -555 144
-128 146 -129 236 -210 40 -36 81 -72 90 -80 93 -81 259 -229 270 -240 3 -3
43 -39 90 -80 47 -41 87 -77 90 -80 3 -3 43 -39 90 -80 47 -41 90 -79 96 -85
19 -17 156 -139 178 -158 153 -132 267 -241 299 -285 93 -126 126 -232 133
-421 6 -163 24 -219 93 -290 56 -58 97 -80 171 -95 65 -14 3363 -15 3420 -2
94 22 184 96 224 185 22 49 27 78 31 173 5 127 12 192 27 258 5 25 12 56 14
70 9 45 77 227 129 345 8 17 55 129 106 250 50 121 95 224 100 230 5 5 9 15 9
23 0 7 10 34 22 60 11 26 38 88 58 137 57 138 179 426 194 460 73 161 149 358
171 440 43 160 43 177 43 1230 0 1129 3 1084 -70 1232 -89 182 -263 317 -463
359 -75 15 -218 7 -308 -17 -239 -64 -443 -309 -464 -556 l-6 -73 -53 0 c-49
0 -54 2 -54 23 0 12 -1 125 -2 251 -1 250 -10 315 -58 423 -63 138 -162 246
-293 318 -354 194 -805 10 -930 -380 -25 -77 -32 -170 -32 -413 l1 -223 -55 3
-56 3 -1 370 c-1 395 -4 424 -55 541 -41 93 -132 206 -218 272 -118 89 -298
137 -452 120z"/>
</g>
</svg>
